<?xml version="1.0" encoding="UTF-8"?> <svg xmlns="http://www.w3.org/2000/svg" id="Layer_2" data-name="Layer 2" version="1.1" viewBox="0 0 697.6 182"><defs><style> .cls-1 { fill: #fff; stroke-width: 0px; } </style></defs><g><rect class="cls-1" x="274.4" y="4.6" width="16.3" height="69.1"></rect><rect class="cls-1" x="298.8" y="4.7" width="16.3" height="69.1"></rect><path class="cls-1" d="M0,39.1C0,16,16.3,3.8,35.3,3.8s31.3,10.2,33.2,25.9h-18.5c-.9-6.6-6.8-10.9-14.8-10.9s-17.6,6.9-17.6,20.3,7.8,20.3,17.6,20.3,14.1-4.2,15.4-10.9h17.5c-1.3,15.7-14.2,25.9-32.8,25.9-18.6,0-35.3-12.2-35.3-35.3"></path><path class="cls-1" d="M97.4,60.6c6.2,0,10.4-4.7,10.4-11.8s-4.1-11.8-10.4-11.8-10.4,4.7-10.4,11.8,4.1,11.8,10.4,11.8M70.7,48.8c0-14.7,11.2-25.7,26.7-25.7s26.7,11,26.7,25.7-11.2,25.7-26.7,25.7-26.7-11-26.7-25.7"></path><path class="cls-1" d="M143.9,48.5v25.2h-16.3V23.9h16.3v7.5c2.9-5.9,6.5-7.5,12-7.5h5.2v13.4h-8.7c-5.4,0-8.6,4.1-8.6,11.2"></path><path class="cls-1" d="M166.7,23.9h16.3v5.7c2.9-3.9,8.1-6.5,14.6-6.5,11.2,0,18.5,8.2,18.5,19.3v31.3h-16.3v-27.4c0-4.9-3.5-8.7-8.4-8.7s-8.4,3.7-8.4,8.7v27.4h-16.3V23.9Z"></path><path class="cls-1" d="M253.7,43c-.3-4.2-3.4-8.3-9-8.3s-8.3,2.3-9.4,8.3h18.4ZM219.7,48.8c0-11.7,7.1-25.7,25-25.7s25.1,14.2,25.1,24.7-.1,3.7-.2,4.8h-34.3c1,5.5,4.4,8.7,10.4,8.7s7.5-1.6,8.4-4.9h15.7c-2.1,11.1-11.8,18.1-24.1,18.1-17.9,0-26-13.9-26-25.7h0Z"></path><rect class="cls-1" x="274.9" y="4.5" width="16.3" height="69.2"></rect><polygon class="cls-1" points="299.2 73.8 299.2 4.6 315.6 4.6 315.6 73.8 299.2 73.8 299.2 73.8"></polygon><path class="cls-1" d="M0,39.1C0,15.9,16.3,3.7,35.4,3.7s31.3,10.2,33.2,25.9h-18.5c-.9-6.6-6.8-10.9-14.8-10.9s-17.6,6.9-17.6,20.4,7.8,20.4,17.6,20.4,14.1-4.3,15.4-10.9h17.5c-1.3,15.7-14.2,25.9-32.8,25.9S0,62.2,0,39.1h0Z"></path><path class="cls-1" d="M97.6,60.6c6.2,0,10.4-4.7,10.4-11.9s-4.2-11.9-10.4-11.9-10.4,4.7-10.4,11.9,4.2,11.9,10.4,11.9M70.9,48.8c0-14.7,11.2-25.7,26.7-25.7s26.7,11,26.7,25.7-11.2,25.7-26.7,25.7-26.7-11-26.7-25.7"></path><path class="cls-1" d="M144.1,48.5v25.2h-16.3V23.9h16.3v7.5c2.9-5.9,6.5-7.5,12.1-7.5h5.2v13.4h-8.7c-5.4,0-8.6,4.2-8.6,11.2"></path><path class="cls-1" d="M167,23.9h16.3v5.7c2.9-3.9,8.1-6.5,14.6-6.5,11.2,0,18.5,8.2,18.5,19.3v31.3h-16.3v-27.5c0-4.9-3.5-8.7-8.4-8.7s-8.4,3.8-8.4,8.7v27.5h-16.3V23.9h0Z"></path><path class="cls-1" d="M254.1,42.9c-.3-4.2-3.4-8.3-9-8.3s-8.3,2.3-9.4,8.3h18.4ZM220.1,48.8c0-11.8,7.1-25.7,25-25.7s25.1,14.2,25.1,24.7,0,3.7-.2,4.8h-34.3c1,5.5,4.5,8.7,10.4,8.7s7.5-1.6,8.4-4.9h15.7c-2.1,11.1-11.9,18.1-24.1,18.1-17.9,0-26-13.9-26-25.7h0s0,0,0,0Z"></path></g><g><polygon class="cls-1" points="1.9 161.9 1.9 92.7 50.6 92.7 50.6 107.7 19.5 107.7 19.5 119.1 44 119.1 44 134.2 19.5 134.2 19.5 146.8 51.7 146.8 51.7 161.9 1.9 161.9"></polygon><path class="cls-1" d="M57.3,112h16.3v5.7c2.9-3.9,8.1-6.5,14.6-6.5,11.2,0,18.5,8.2,18.5,19.3v31.3h-16.3v-27.5c0-4.9-3.5-8.7-8.4-8.7s-8.4,3.8-8.4,8.7v27.5h-16.3s0-49.8,0-49.8Z"></path><path class="cls-1" d="M137.9,148.8c6.3,0,10.4-4.6,10.4-11.9s-4.1-11.9-10.4-11.9-10.3,4.6-10.3,11.9,4.1,11.9,10.3,11.9M118.9,169.6h22.9c3.3,0,5.6-2.7,5.6-6.4v-5.5c-2.7,3.3-7.3,5-12.5,5-14.3,0-23.3-9.8-23.3-25.7s9-25.7,23-25.7,10,1.9,12.7,4.7v-3.9h16.3v53.1c0,10.3-7.4,16.9-18.9,16.9h-25.9v-12.5h0Z"></path><rect class="cls-1" x="171.7" y="112" width="16.3" height="49.8"></rect><path class="cls-1" d="M196,112h16.3v5.7c2.9-3.9,8.1-6.5,14.6-6.5,11.2,0,18.5,8.2,18.5,19.3v31.3h-16.3v-27.5c0-4.9-3.5-8.7-8.4-8.7s-8.4,3.8-8.4,8.7v27.5h-16.3v-49.8h0Z"></path><path class="cls-1" d="M283.3,131.1c-.3-4.2-3.4-8.3-9-8.3s-8.3,2.3-9.4,8.3h18.4ZM249.3,137c0-11.8,7.1-25.7,25-25.7s25.1,14.2,25.1,24.7,0,3.7-.2,4.8h-34.3c1,5.5,4.5,8.7,10.4,8.7s7.5-1.6,8.4-4.9h15.7c-2.1,11.1-11.9,18.1-24.1,18.1-17.9,0-26-13.9-26-25.7h0s0,0,0,0Z"></path><path class="cls-1" d="M336.3,131.1c-.3-4.2-3.4-8.3-9-8.3s-8.3,2.3-9.4,8.3h18.4ZM302.3,137c0-11.8,7.1-25.7,25-25.7s25.1,14.2,25.1,24.7,0,3.7-.2,4.8h-34.3c1,5.5,4.5,8.7,10.4,8.7s7.5-1.6,8.4-4.9h15.7c-2.1,11.1-11.9,18.1-24.1,18.1-17.9,0-26-13.9-26-25.7h0s0,0,0,0Z"></path><path class="cls-1" d="M373.3,136.6v25.2h-16.3v-49.8h16.3v7.5c2.9-5.9,6.5-7.5,12.1-7.5h5.2v13.4h-8.7c-5.4,0-8.6,4.2-8.6,11.2"></path><path class="cls-1" d="M420.5,112h16.3v5.7c2.9-3.9,8.1-6.5,14.6-6.5,11.2,0,18.5,8.2,18.5,19.3v31.3h-16.3v-27.5c0-4.9-3.5-8.7-8.4-8.7s-8.4,3.8-8.4,8.7v27.5h-16.3v-49.8Z"></path><path class="cls-1" d="M500.6,148.8c6.3,0,10.4-4.6,10.4-11.9s-4.1-11.9-10.4-11.9-10.3,4.6-10.3,11.9,4.1,11.9,10.3,11.9M481.7,169.6h22.9c3.3,0,5.6-2.7,5.6-6.4v-5.5c-2.7,3.3-7.3,5-12.5,5-14.3,0-23.3-9.8-23.3-25.7s9-25.7,23-25.7,10,1.9,12.7,4.7v-3.9h16.3v53.1c0,10.3-7.4,16.9-18.9,16.9h-25.9v-12.5h0Z"></path><rect class="cls-1" x="396.1" y="112" width="16.3" height="49.8"></rect><path class="cls-1" d="M179.8,86.9c5.8,0,10.2,4.5,10.2,10s-4.5,10-10.2,10-10.1-4.5-10.1-10,4.4-10,10.1-10"></path><path class="cls-1" d="M404.2,86.9c5.8,0,10.2,4.5,10.2,10s-4.5,10-10.2,10-10.1-4.5-10.1-10,4.4-10,10.1-10"></path></g><g><path class="cls-1" d="M372.7,57c3.1-1.2,5.6-3.3,7.5-6.2,1.9-2.9,2.9-6.8,2.9-11.6s-1-8.7-2.9-11.6c-1.9-2.9-4.4-5-7.5-6.2-3.1-1.2-6.5-1.8-10.4-1.8h-4.9v39.2h4.9c3.8,0,7.3-.6,10.4-1.8M339.8,4.5h24.6c6.6,0,12.7,1.2,18.1,3.7,5.5,2.5,9.9,6.3,13.2,11.5,3.3,5.2,5,11.7,5,19.4s-1.7,14.2-5,19.4c-3.3,5.2-7.7,9.1-13.2,11.5-5.5,2.5-11.5,3.7-18.1,3.7h-24.6V4.5Z"></path><path class="cls-1" d="M454.9,73.1h-16.3v-5.7c-1.5,2-3.5,3.6-6,4.8-2.6,1.2-5.5,1.8-8.6,1.8s-6.9-.8-9.7-2.5c-2.8-1.6-5-3.9-6.5-6.9-1.6-2.9-2.3-6.3-2.3-10v-31.4h16.3v27.5c0,2.5.8,4.6,2.4,6.2,1.6,1.7,3.6,2.5,6,2.5s3.1-.4,4.4-1.1c1.3-.8,2.2-1.8,3-3.1.7-1.3,1.1-2.8,1.1-4.5v-27.5h16.3v49.9h0Z"></path><path class="cls-1" d="M468.3,36.8h-9.2v-13.5h9.2v-4.7c0-3.6.8-6.7,2.5-9.5,1.7-2.7,4-4.9,7-6.3,3-1.5,6.5-2.2,10.5-2.2h10v13.5h-7.5c-1.9,0-3.3.5-4.5,1.5-1.1,1-1.7,2.4-1.7,4v3.7h13.7v13.5h-13.7v37.1h-16.3v-37.1h0Z"></path><path class="cls-1" d="M512.2,36.8h-9.2v-13.5h9.2v-4.7c0-3.6.8-6.7,2.5-9.5,1.6-2.7,4-4.9,7-6.3,3-1.5,6.5-2.2,10.5-2.2h10v13.5h-7.5c-1.9,0-3.3.5-4.5,1.5-1.1,1-1.7,2.4-1.7,4v3.7h13.7v13.5h-13.7v37.1h-16.3v-37.1Z"></path><path class="cls-1" d="M556.5,0c5.8,0,10.2,4.5,10.2,10s-4.5,10-10.2,10-10.1-4.5-10.1-10S550.8,0,556.5,0"></path><rect class="cls-1" x="548.4" y="23.4" width="16.3" height="50.5"></rect><path class="cls-1" d="M580.2,70.1c-3.9-2.5-6.8-5.8-8.8-9.8-2-4-2.9-8-2.9-12.2s.9-8.3,2.7-12.2c1.8-3.9,4.6-7.2,8.3-9.7,3.8-2.5,8.5-3.8,14.1-3.8s10.7,1.3,14.5,3.8c3.8,2.5,6.5,5.7,8.2,9.5,1.7,3.8,2.5,7.6,2.5,11.5s0,3.3-.2,4.9h-40.5v-9.7h24.6c-.1-2.3-1-4.3-2.6-5.9-1.6-1.6-3.7-2.4-6.4-2.4s-4.1.4-5.5,1.3c-1.5.9-2.5,2.3-3.2,4.4-.7,2-1,4.7-1,8.2s.4,5,1.2,6.9c.8,1.9,2,3.4,3.6,4.4,1.6,1,3.6,1.5,6,1.5s4.1-.4,5.5-1.2c1.5-.8,2.4-2.1,2.9-3.7h15.8c-.7,3.6-2.1,6.8-4.4,9.6s-5.1,4.9-8.5,6.3c-3.4,1.5-7.2,2.2-11.2,2.2s-10.5-1.3-14.4-3.8"></path><rect class="cls-1" x="624" y="4.9" width="16.3" height="69"></rect><path class="cls-1" d="M677.2,58.5c1.6-1,2.8-2.4,3.7-4.2.9-1.8,1.3-3.9,1.3-6.2,0-3.6-1-6.4-2.9-8.6-1.9-2.2-4.4-3.3-7.5-3.3s-3.9.5-5.4,1.5-2.8,2.4-3.6,4.2c-.9,1.8-1.3,3.9-1.3,6.2,0,3.6.9,6.4,2.8,8.6,1.9,2.2,4.4,3.3,7.5,3.3s3.9-.5,5.4-1.5M656.4,70.8c-3.5-2.1-6.2-5.1-8.1-8.9-1.9-3.9-2.8-8.4-2.8-13.7s.9-9.9,2.8-13.7c1.9-3.9,4.6-6.8,8-8.9,3.5-2.1,7.5-3.1,12.2-3.1s5.3.4,7.4,1.2c2.1.8,3.9,2,5.3,3.5V4.1h16.3v69h-16.3v-4.3c-1.3,1.7-3.1,2.9-5.3,3.8-2.2.9-4.6,1.3-7.1,1.3-4.8,0-8.9-1-12.4-3.1"></path></g></svg> 