<?xml version="1.0" encoding="UTF-8"?> <svg xmlns="http://www.w3.org/2000/svg" id="Layer_2" data-name="Layer 2" version="1.1" viewBox="0 0 697.591317 182.039681"><defs><style> .cls-1 { fill: #000; } .cls-1, .cls-2 { stroke-width: 0px; } .cls-2 { fill: #ac1e2d; } </style></defs><g><rect class="cls-2" x="274.444072" y="4.574115" width="16.288238" height="69.104696"></rect><rect class="cls-2" x="298.753177" y="4.654932" width="16.288238" height="69.104696"></rect><path class="cls-2" d="M0,39.124841C0,16.023946,16.288207,3.784539,35.340302,3.784539c19.056103,0,31.295495,10.166507,33.174454,25.864767h-18.462132c-.888967-6.614677-6.812672-10.861502-14.809308-10.861502-9.673515,0-17.573165,6.909673-17.573165,20.337037s7.798625,20.337037,17.573165,20.337037c8.093591,0,14.118351-4.246818,15.39924-10.861502h17.47621c-1.284958,15.69826-14.215337,25.868798-32.778464,25.868798C16.781184,74.469174,0,62.225735,0,39.124841"></path><path class="cls-2" d="M97.392289,60.647029c6.22274,0,10.368541-4.739779,10.368541-11.84744s-4.145801-11.84744-10.368541-11.84744c-6.218701,0-10.364502,4.739787-10.364502,11.84744s4.145801,11.84744,10.364502,11.84744M70.739579,48.799589c0-14.708283,11.156484-25.666772,26.65271-25.666772,15.500265,0,26.656748,10.958488,26.656748,25.666772s-11.156484,25.666772-26.656748,25.666772c-15.496226,0-26.65271-10.958488-26.65271-25.666772"></path><path class="cls-2" d="M143.881367,48.50339v25.173795h-16.288207V23.923581h16.288207v7.499605c2.864882-5.92372,6.513667-7.499605,12.045451-7.499605h5.232748v13.423325h-8.687593c-5.430759,0-8.590606,4.145801-8.590606,11.156484"></path><path class="cls-2" d="M166.718818,23.921561h16.288207v5.725725c2.864882-3.85082,8.09763-6.513667,14.611328-6.513667,11.156453,0,18.462101,8.190577,18.462101,19.250075v31.29551h-16.288207v-27.444691c0-4.937782-3.458852-8.687577-8.392596-8.687577-4.937782,0-8.392627,3.749795-8.392627,8.687577v27.444691h-16.288207V23.921561Z"></path><path class="cls-2" d="M253.668639,42.976878c-.295028-4.24681-3.35382-8.295625-8.982589-8.295625-5.232748,0-8.291602,2.270896-9.378549,8.295625h18.361138ZM219.71025,48.799589c0-11.746431,7.107669-25.666772,24.9758-25.666772,18.858154,0,25.076794,14.215322,25.076794,24.680834,0,2.270896-.100994,3.652824-.19798,4.836758h-34.257363c.989992,5.52773,4.444836,8.687593,10.36851,8.687593,4.440767,0,7.499621-1.579932,8.388588-4.937782h15.698244c-2.0729,11.059498-11.847409,18.066142-24.086832,18.066142-17.872169,0-25.965761-13.920348-25.965761-25.666772Z"></path><rect class="cls-2" x="274.892625" y="4.465013" width="16.312469" height="69.217836"></rect><polygon class="cls-2" points="299.245321 73.763258 299.245321 4.561583 315.55779 4.561583 315.55779 73.77942 299.245321 73.77942 299.245321 73.763258"></polygon><path class="cls-2" d="M0,39.074745C0,15.945565,16.312469,3.673834,35.400911,3.673834s31.343988,10.178623,33.231024,25.905183h-18.486363c-.888967-6.626823-6.816741-10.877672-14.821454-10.877672-9.689669,0-17.597396,6.929866-17.597396,20.3734s7.814779,20.3734,17.597396,20.3734c8.101699,0,14.138544-4.250856,15.423502-10.877672h17.504479c-1.284958,15.72656-14.239569,25.905175-32.835034,25.905175S.016154,62.220094.016154,39.074745h-.016154Z"></path><path class="cls-2" d="M97.564835,60.636925c6.230817,0,10.384695-4.739787,10.384695-11.859563s-4.153878-11.859571-10.384695-11.859571-10.384695,4.739787-10.384695,11.859571,4.153878,11.859563,10.384695,11.859563M70.867671,48.777362c0-14.728491,11.176676-25.715249,26.697164-25.715249s26.701172,10.970604,26.701172,25.715249-11.180715,25.715257-26.701172,25.715257-26.697164-10.970604-26.697164-25.715257"></path><path class="cls-2" d="M144.129074,48.475922v25.206119h-16.312469V23.855712h16.312469v7.511721c2.86892-5.927759,6.529822-7.511721,12.065643-7.511721h5.248902v13.443534h-8.707785c-5.434767,0-8.606761,4.153878-8.606761,11.176676"></path><path class="cls-2" d="M166.990755,23.854895h16.312469v5.73784c2.872959-3.85082,8.101668-6.529822,14.635528-6.529822,11.176707,0,18.486394,8.21077,18.486394,19.27836v31.344003h-16.316508v-27.493184c0-4.945859-3.454814-8.703747-8.400704-8.703747-4.945859,0-8.404711,3.757887-8.404711,8.703747v27.493184h-16.312469V23.854895Z"></path><path class="cls-2" d="M254.077177,42.942535c-.303105-4.24681-3.361897-8.307756-9.00682-8.307756-5.244895,0-8.303748,2.266857-9.382618,8.307756h18.389439ZM220.070295,48.777362c0-11.762585,7.119784-25.715249,25.016216-25.715249,18.882385,0,25.113171,14.235515,25.113171,24.71718,0,2.266857-.092917,3.660917-.189903,4.848889h-34.305856c.981884,5.535814,4.452883,8.703754,10.384695,8.703754,4.452852,0,7.511706-1.58397,8.400673-4.945867h15.726545c-2.076908,11.083744-11.859556,18.090388-24.127218,18.090388-17.90047,0-26.002169-13.93651-26.002169-25.715265l-.016154.016169Z"></path></g><g><polygon class="cls-1" points="1.859938 161.857003 1.859938 92.65533 50.61145 92.65533 50.61145 107.682834 19.457365 107.682834 19.457365 119.146407 43.984643 119.146407 43.984643 134.17391 19.457365 134.17391 19.457365 146.825459 51.69032 146.825459 51.69032 161.857003 1.859938 161.857003"></polygon><path class="cls-1" d="M57.270165,112.027833h16.312469v5.737848c2.86892-3.850827,8.101668-6.529829,14.635528-6.529829,11.176707,0,18.486394,8.210778,18.486394,19.278356v31.344003h-16.316508v-27.49318c0-4.945863-3.454814-8.703747-8.400704-8.703747-4.945859,0-8.404711,3.757884-8.404711,8.703747v27.49318h-16.312469v-49.830378Z"></path><path class="cls-1" d="M137.890179,148.808653c6.323765,0,10.380657-4.642808,10.380657-11.859563,0-7.212716-4.056892-11.859571-10.380657-11.859571-6.327803,0-10.291747,4.646855-10.291747,11.859571,0,7.216755,4.06093,11.859563,10.291747,11.859563M118.910839,169.578045h22.939277c3.268949,0,5.644893-2.662846,5.644893-6.420733v-5.531768c-2.662832,3.264915-7.321803,5.038799-12.461634,5.038799-14.332485,0-23.335267-9.778586-23.335267-25.715253,0-15.932633,9.002782-25.715257,23.036263-25.715257,5.834826,0,9.988704,1.887021,12.651537,4.739787v-3.947806h16.312469v53.095297c0,10.29176-7.418789,16.918571-18.882354,16.918571h-25.905183v-12.461636Z"></path><rect class="cls-1" x="171.720446" y="112.029451" width="16.312469" height="49.830378"></rect><path class="cls-1" d="M196.040433,112.027833h16.312469v5.737848c2.872959-3.850827,8.101668-6.529829,14.635528-6.529829,11.176707,0,18.486394,8.210778,18.486394,19.278356v31.344003h-16.316508v-27.49318c0-4.945863-3.454814-8.703747-8.400704-8.703747-4.945859,0-8.404711,3.757884-8.404711,8.703747v27.49318h-16.312469v-49.830378Z"></path><path class="cls-1" d="M283.285221,131.115473c-.299035-4.246814-3.361897-8.307756-9.00682-8.307756-5.244895,0-8.303687,2.266853-9.398711,8.307756h18.405531ZM249.278369,136.950299c0-11.762589,7.119753-25.715257,25.016185-25.715257,18.882385,0,25.113233,14.235522,25.113233,24.717196,0,2.266853-.092978,3.660909-.189964,4.848885h-34.305825c.981884,5.53581,4.452852,8.70375,10.384664,8.70375,4.452913,0,7.511767-1.58397,8.400734-4.945863h15.726545c-2.07697,11.083742-11.859556,18.090382-24.127279,18.090382-17.900439,0-26.002138-13.936504-26.002138-25.715255l-.016154.016162Z"></path><path class="cls-1" d="M336.269408,131.115473c-.299035-4.246814-3.361897-8.307756-9.00682-8.307756-5.244833,0-8.303687,2.266853-9.398773,8.307756h18.405593ZM302.262557,136.950299c0-11.762589,7.119753-25.715257,25.016185-25.715257,18.882385,0,25.113233,14.235522,25.113233,24.717196,0,2.266853-.092978,3.660909-.189964,4.848885h-34.305825c.981884,5.53581,4.452852,8.70375,10.384664,8.70375,4.452913,0,7.511767-1.58397,8.400734-4.945863h15.726545c-2.07697,11.083742-11.859556,18.090382-24.127279,18.090382-17.900439,0-26.002138-13.936504-26.002138-25.715255l-.016154.016162Z"></path><path class="cls-1" d="M373.257117,136.648859v25.206122h-16.312469v-49.82634h16.312469v7.511733c2.868951-5.927762,6.529822-7.511733,12.065613-7.511733h5.244895v13.443537h-8.703716c-5.434797,0-8.606791,4.153878-8.606791,11.17668"></path><path class="cls-1" d="M420.454509,112.027833h16.312469v5.737848c2.868889-3.850827,8.101637-6.529829,14.635528-6.529829,11.176707,0,18.486363,8.210778,18.486363,19.278356v31.344003h-16.316477v-27.49318c0-4.945863-3.454814-8.703747-8.400673-8.703747s-8.404742,3.757884-8.404742,8.703747v27.49318h-16.312469v-49.830378Z"></path><path class="cls-1" d="M500.646225,148.808653c6.323703,0,10.380657-4.642808,10.380657-11.859563,0-7.212716-4.056954-11.859571-10.380657-11.859571-6.327834,0-10.291809,4.646855-10.291809,11.859571,0,7.216755,4.060961,11.859563,10.291809,11.859563M481.666854,169.578045h22.939277c3.268918,0,5.644924-2.662846,5.644924-6.420733v-5.531768c-2.662894,3.264915-7.325872,5.038799-12.461634,5.038799-14.332547,0-23.335298-9.778586-23.335298-25.715253,0-15.932633,9.002751-25.715257,23.036263-25.715257,5.834826,0,9.988704,1.887021,12.651537,4.739787v-3.947806h16.312469v53.095297c0,10.29176-7.418789,16.918571-18.882385,16.918571h-25.905152v-12.461636Z"></path><rect class="cls-1" x="396.118768" y="112.029451" width="16.312469" height="49.830378"></rect><path class="cls-1" d="M179.821713,86.914646c5.786333,0,10.243285,4.456936,10.243285,10.03719s-4.456952,10.033151-10.243285,10.033151-10.130145-4.549869-10.130145-10.033151c0-5.487321,4.436759-10.03719,10.130145-10.03719"></path><path class="cls-1" d="M404.220036,86.914646c5.786364,0,10.243285,4.456936,10.243285,10.03719s-4.456921,10.033151-10.243285,10.033151-10.130145-4.549869-10.130145-10.033151c0-5.487321,4.436759-10.03719,10.130145-10.03719"></path></g><g><path class="cls-1" d="M372.681675,56.990166c3.070939-1.220311,5.564092-3.285126,7.483467-6.190416,1.911236-2.905282,2.872959-6.772271,2.872959-11.592875s-.961722-8.687593-2.872959-11.592875c-1.919375-2.909336-4.412528-4.970106-7.483467-6.194455-3.070939-1.220295-6.525814-1.834489-10.352356-1.834489h-4.85695v39.239599h4.85695c3.826542,0,7.281418-.610155,10.352356-1.834489M339.834526,4.525221h24.571701c6.606646,0,12.651599,1.240503,18.134858,3.717471,5.48326,2.476984,9.891718,6.323765,13.229384,11.540359,3.333596,5.220633,5.002398,11.693884,5.002398,19.423824s-1.668802,14.203191-5.002398,19.419785c-3.337666,5.220633-7.746125,9.067414-13.229384,11.544389-5.48326,2.476968-11.528212,3.717479-18.134858,3.717479h-24.571701V4.525221Z"></path><path class="cls-1" d="M454.875139,73.094112h-16.348847v-5.745933c-1.454668,1.979968-3.46696,3.563931-6.044891,4.755949-2.577993,1.187979-5.451013,1.781965-8.618938,1.781965-3.636639,0-6.857096-.824305-9.661369-2.476968-2.808342-1.648625-4.990314-3.947806-6.541968-6.885419-1.551654-2.937614-2.327481-6.259102-2.327481-9.960419v-31.408658h16.348847v27.545715c0,2.509299.791981,4.590277,2.379951,6.24294,1.584024,1.652663,3.596316,2.476968,6.040945,2.476968,1.652648,0,3.107316-.379829,4.359935-1.139486,1.256688-.759658,2.246649-1.798127,2.974014-3.123486.727303-1.317281,1.090955-2.804273,1.090955-4.456936v-27.545715h16.348847v49.939484Z"></path><path class="cls-1" d="M468.250403,36.754138h-9.216947v-13.475857h9.216947v-4.711502c0-3.563931.824289-6.719755,2.476999-9.463404,1.652648-2.739626,3.996283-4.852927,7.034914-6.339919,3.03863-1.486992,6.541968-2.230495,10.501874-2.230495h10.008866v13.475857h-7.52786c-1.85069,0-3.337666.513185-4.46099,1.535485-1.123325,1.026354-1.684956,2.363828-1.684956,4.016491v3.717487h13.673806v13.475857h-13.673806v37.134375h-16.348847v-37.134375Z"></path><path class="cls-1" d="M512.19947,36.754138h-9.216947v-13.475857h9.216947v-4.711502c0-3.563931.824289-6.719755,2.476999-9.463404,1.648579-2.739626,3.996283-4.852927,7.034914-6.339919,3.03863-1.486992,6.541968-2.230495,10.501874-2.230495h10.008866v13.475857h-7.52786c-1.85069,0-3.337666.513185-4.46099,1.535485-1.123325,1.026354-1.684956,2.363828-1.684956,4.016491v3.717487h13.673806v13.475857h-13.673806v37.134375h-16.348847v-37.134375Z"></path><path class="cls-1" d="M556.487155,0c5.786364,0,10.243285,4.456936,10.243285,10.037198s-4.456921,10.033144-10.243285,10.033144-10.130145-4.549869-10.130145-10.033144c0-5.487329,4.436759-10.037198,10.130145-10.037198"></path><rect class="cls-1" x="548.369734" y="23.399914" width="16.348847" height="50.489015"></rect><path class="cls-1" d="M580.173589,70.071644c-3.899297-2.541623-6.82078-5.798457-8.768394-9.758378-1.951683-3.963967-2.92549-8.028944-2.92549-12.190915,0-4.226602.892975-8.303718,2.674979-12.235354,1.786012-3.931636,4.557915-7.168262,8.32391-9.709893,3.765934-2.545654,8.457274-3.814458,14.069828-3.814458,5.879281,0,10.703923,1.268804,14.469918,3.814458,3.765934,2.541631,6.489375,5.69744,8.174392,9.46342,1.684956,3.761926,2.525461,7.596576,2.525461,11.49185,0,1.652663-.064678,3.268965-.19798,4.856966h-40.524588v-9.713931h24.571763c-.133364-2.311296-1.006177-4.275095-2.626517-5.895435-1.62034-1.616301-3.74978-2.424437-6.39245-2.424437-2.24258,0-4.093269.444468-5.547938,1.337474-1.454668.888967-2.525461,2.34362-3.220456,4.35995-.690987,2.01633-1.038485,4.739787-1.038485,8.174423,0,2.707287.396021,5.018591,1.188003,6.933905.791981,1.919352,1.979984,3.386136,3.567954,4.412482,1.583962,1.022308,3.600324,1.535485,6.044953,1.535485,2.242642,0,4.093269-.41216,5.547938-1.240511,1.450599-.824312,2.412321-2.064816,2.872959-3.713433h15.754845c-.658618,3.632624-2.129501,6.820764-4.408459,9.560383s-5.119608,4.852927-8.52189,6.339919c-3.402344,1.486992-7.152123,2.230487-11.245393,2.230487-5.681301,0-10.473573-1.268796-14.368863-3.814458"></path><rect class="cls-1" x="623.971966" y="4.921613" width="16.348847" height="68.963271"></rect><path class="cls-1" d="M677.177501,58.526044c1.588032-.989984,2.808342-2.375959,3.669009-4.157924.856659-1.786012,1.284989-3.866989,1.284989-6.242933,0-3.567985-.957653-6.440943-2.87302-8.622945-1.915306-2.177948-4.424551-3.268949-7.52786-3.268949-2.048669,0-3.850835.497015-5.402489,1.486992s-2.759819,2.375959-3.616416,4.161955c-.856659,1.781973-1.288996,3.862951-1.288996,6.242948,0,3.563931.941437,6.440928,2.824435,8.618892,1.882998,2.181994,4.376151,3.268957,7.483467,3.268957,2.0446,0,3.86292-.492969,5.446882-1.486992M656.420258,70.765436c-3.535646-2.080978-6.242933-5.054961-8.12593-8.917911-1.882998-3.862943-2.824496-8.437058-2.824496-13.722338s.941499-9.85941,2.824496-13.726399c1.882998-3.862935,4.557976-6.836918,8.024936-8.917896,3.470968-2.080993,7.548083-3.119447,12.239361-3.119447,2.840651,0,5.317649.412145,7.430935,1.236465,2.113286.828343,3.86292,2.000161,5.252972,3.519476V4.129632h16.348785v68.963271h-16.348785v-4.258941c-1.321366,1.652663-3.071,2.90529-5.252972,3.765972-2.177964.856636-4.557976,1.28495-7.135969,1.28495-4.755956,0-8.901757-1.03847-12.433334-3.119447"></path></g></svg> 