<svg width="512" height="515" viewBox="0 0 512 515" fill="none" xmlns="http://www.w3.org/2000/svg">
<path d="M193.57 6.64261C105.555 27.8159 27.0894 107.112 5.91608 195.542C-1.97203 229.585 -1.97203 285.217 5.91608 319.26C27.0894 408.521 105.97 487.402 195.231 508.575C229.274 516.463 284.906 516.463 318.949 508.575C378.733 494.459 444.744 446.716 477.126 393.99L490.412 372.401L476.296 381.535C435.61 408.521 385.79 419.73 341.783 411.427C222.216 389.423 154.96 262.383 205.61 154.856C242.974 75.9749 340.122 34.0434 423.57 60.1986C438.516 65.1806 431.458 58.1228 410.7 47.7437C377.072 30.722 342.613 23.6643 304.834 26.1553C255.844 29.0614 228.028 41.1011 178.624 80.5417C174.888 83.4478 176.133 78.4658 181.53 68.0868C191.909 47.3286 223.046 18.6823 245.88 7.88809L263.317 0L240.483 0.415161C228.028 0.415161 206.855 3.32129 193.57 6.64261Z" fill="#B40A02"/>
<path d="M327.668 76.8051C282.415 91.3358 238.823 136.173 225.537 181.841C215.989 215.054 218.895 261.553 233.01 291.444C268.299 367.834 358.805 403.954 435.195 372.816C448.48 367.419 447.65 367.419 418.588 368.665C340.953 372.401 280.754 315.524 280.754 238.719C280.754 186.408 307.325 143.231 354.653 119.982C401.151 97.148 453.047 102.96 496.639 135.758L512 147.383L502.866 134.513C488.751 114.17 465.087 95.4874 439.762 83.8628C411.531 70.5776 357.144 67.2563 327.668 76.8051Z" fill="#B40A02"/>
<path d="M317.704 197.202C299.021 235.397 305.664 287.293 333.48 318.845C362.126 351.643 420.249 362.853 460.52 343.755L479.202 334.621L454.292 332.13C418.588 327.979 389.527 313.863 367.108 290.199C343.444 264.874 332.234 240.379 328.498 206.336L325.592 180.596L317.704 197.202Z" fill="#B40A02"/>
</svg>
